<svg xmlns="http://www.w3.org/2000/svg" xmlns:xlink="http://www.w3.org/1999/xlink" width="512" height="512" viewBox="0 0 512 512"><defs><clipPath id="a"><path d="M0,0H130.292V150.126H0Z" fill="none"/></clipPath><clipPath id="b"><path d="M0,0H124.291V152.047H0Z" fill="none"/></clipPath></defs><g transform="translate(-512 -178)"><rect width="512" height="512" transform="translate(512 178)" fill="#d4b254"/><g transform="translate(573.358 357.511)"><g transform="translate(143.893 0.465)"><path d="M0,0H130.292V150.126H0Z" transform="translate(0)" fill="none"/><g transform="translate(0)" clip-path="url(#a)"><path d="M120.909,30.5v90.632c0,17.485-1.707,22.393,9.382,25.375v3.628H85.939V146.5c5.759-2.13,5.117-7.908,5.117-25.375V80.394H39.45v40.734c0,17.485-.851,23.258,5.117,25.375v3.628H0V146.5c11.3-2.982,9.6-7.908,9.6-25.375V30.5c0-16.42.637-24.951-9.6-26.868V0H44.567V3.628C38.6,5.545,39.45,14.076,39.45,30.5V76.133H91.055V30.5c0-16.42.856-24.951-5.117-26.868V0h44.353V3.628c-10.024,1.916-9.382,10.448-9.382,26.868" fill="#fff"/></g></g><path d="M105.345,146.5v3.628H71.635c-22.607,0-27.724-6.182-50.112-38.608C9.168,94.042,0,81.868,0,81.868L29.426,46.274S66.1,4.475,28.147,3.628V0H98.521V3.628c-14.29,0-29.212.423-75.263,59.494,49.884,66.746,52.019,69.518,52.019,69.518A34.8,34.8,0,0,0,105.345,146.5" transform="translate(283.516 0.465)" fill="#fff"/><path d="M35.613,15.516c0-.126-.4-10.824-.526-14.364a1.163,1.163,0,1,0-2.326,0c-.2,3.479-.777,14.239-.777,14.383C31.929,19.428,30.64,65.6,0,65.6v3.628H64.616V65.6c-28.231,0-28.989-46.3-29-50.079" transform="translate(0.423 81.368)" fill="#fff"/><g transform="translate(8.312 0.465)"><path d="M0,0H124.291V152.047H0Z" transform="translate(0)" fill="none"/><g transform="translate(0)" clip-path="url(#b)"><path d="M123.686,68.737a.986.986,0,0,0-1.293.53l-7.266,14.141c-6.3,12.266-12.9,17.439-20.169,3.321h0L53.735,0H0V3.628A26.114,26.114,0,0,1,24.1,18.341L87.45,152.047h3.628l3.4-8.489L124.254,70a.986.986,0,0,0-.54-1.27" fill="#fff"/></g></g></g></g></svg>